<svg xmlns="http://www.w3.org/2000/svg" width="6.62" height="11.688" viewBox="0 0 6.62 11.688">
  <defs>
    <style>
      .cls-1 {
        fill-rule: evenodd;
      }
    </style>
  </defs>
  <path id="Shape_694_copy_2" data-name="Shape 694 copy 2" class="cls-1" d="M1014.12,461.043l-5-5.207a0.588,0.588,0,0,0-.43-0.187,0.61,0.61,0,0,0-.44.187l-0.36.384a0.659,0.659,0,0,0,0,.9l4.19,4.373-4.2,4.377a0.66,0.66,0,0,0,0,.906l0.37,0.383a0.6,0.6,0,0,0,.87,0l5-5.212A0.664,0.664,0,0,0,1014.12,461.043Z" transform="translate(-1007.69 -455.656)"/>
</svg>
