<svg xmlns="http://www.w3.org/2000/svg" width="21.44" height="12.812" viewBox="0 0 21.44 12.812">
  <defs>
    <style>
      .cls-1 {
        fill: #cbcbcb;
        fill-rule: evenodd;
      }
    </style>
  </defs>
  <path class="cls-1" d="M1193.02,669.107c-4.1,0-7.82,2.242-10.56,5.884a0.861,0.861,0,0,0,0,1.014c2.74,3.646,6.46,5.888,10.56,5.888s7.81-2.242,10.55-5.884a0.861,0.861,0,0,0,0-1.014C1200.83,671.349,1197.11,669.107,1193.02,669.107ZM1193.31,680a4.512,4.512,0,1,1,4.2-4.208A4.505,4.505,0,0,1,1193.31,680Zm-0.14-2.08a2.429,2.429,0,1,1,2.27-2.269A2.432,2.432,0,0,1,1193.17,677.922Z" transform="translate(-1182.31 -669.094)"/>
</svg>
