<svg xmlns="http://www.w3.org/2000/svg" width="22" height="15" viewBox="0 0 22 15">
  <defs>
    <style>
      .cls-1 {
        fill-rule: evenodd;
      }
    </style>
  </defs>
  <path class="cls-1" d="M1152.58,528.612l7.4,4.652v-9.5Zm-14.56-4.849v9.5l7.4-4.652ZM1158.61,521h-19.22a1.345,1.345,0,0,0-1.33,1.161l10.94,7.163,10.94-7.163A1.345,1.345,0,0,0,1158.61,521Zm-7.29,8.439-1.94,1.271a0.7,0.7,0,0,1-.76,0l-1.94-1.273-8.62,5.418a1.349,1.349,0,0,0,1.33,1.151h19.22a1.349,1.349,0,0,0,1.33-1.151Z" transform="translate(-1138 -521)"/>
</svg>
