<svg xmlns="http://www.w3.org/2000/svg" width="19.25" height="19.25" viewBox="0 0 19.25 19.25">
  <defs>
    <style>
      .cls-1 {
        fill: #14a8ab;
        fill-rule: evenodd;
      }
    </style>
  </defs>
  <path id="Forma_1" data-name="Forma 1" class="cls-1" d="M1339,59.375A9.625,9.625,0,1,0,1348.62,69,9.63,9.63,0,0,0,1339,59.375Zm0,17.759A8.134,8.134,0,1,1,1347.13,69,8.143,8.143,0,0,1,1339,77.134Zm3.73-8.947h-2.98V65.205a0.75,0.75,0,0,0-1.5,0v2.982h-2.98a0.746,0.746,0,0,0,0,1.491h2.98V72.66a0.75,0.75,0,0,0,1.5,0V69.678h2.98A0.746,0.746,0,0,0,1342.73,68.187Z" transform="translate(-1329.38 -59.375)"/>
</svg>
