<svg xmlns="http://www.w3.org/2000/svg" width="19" height="19" viewBox="0 0 19 19">
  <defs>
    <style>
      .cls-1 {
        fill-rule: evenodd;
      }
    </style>
  </defs>
  <path class="cls-1" d="M872.854,1223.13a7.659,7.659,0,0,1-2.315-4.36,0.638,0.638,0,0,1,.187-0.54l1.468-1.47a0.655,0.655,0,0,0,.092-0.81l-2.337-3.64a0.664,0.664,0,0,0-.849-0.24l-3.751,1.77a0.656,0.656,0,0,0-.36.66,19.594,19.594,0,0,0,16.49,16.51,0.654,0.654,0,0,0,.651-0.36l1.767-3.76a0.66,0.66,0,0,0-.238-0.85l-3.628-2.34a0.654,0.654,0,0,0-.811.1l-1.467,1.47a0.645,0.645,0,0,1-.545.18,7.628,7.628,0,0,1-4.354-2.32h0Zm7.2-.97a0.66,0.66,0,0,1-.655-0.66,4.919,4.919,0,0,0-4.914-4.92,0.661,0.661,0,0,1-.656-0.66,0.653,0.653,0,0,1,.656-0.65,6.231,6.231,0,0,1,6.224,6.23A0.661,0.661,0,0,1,880.056,1222.16Zm3.275,0a0.661,0.661,0,0,1-.655-0.66,8.2,8.2,0,0,0-8.189-8.2,0.661,0.661,0,0,1-.656-0.66,0.653,0.653,0,0,1,.656-0.65,9.512,9.512,0,0,1,9.5,9.51,0.649,0.649,0,0,1-.192.46A0.636,0.636,0,0,1,883.331,1222.16Z" transform="translate(-865 -1212)"/>
</svg>
