<svg xmlns="http://www.w3.org/2000/svg" width="16" height="9" viewBox="0 0 16 9">
  <defs>
    <style>
      .cls-1 {
        fill: #fff;
        fill-rule: evenodd;
      }
    </style>
  </defs>
  <path class="cls-1" d="M1196.62,2118.76l7.12-6.82a0.833,0.833,0,0,0,0-1.19l-0.53-.5a0.888,0.888,0,0,0-1.23,0l-5.98,5.73-5.98-5.74a0.908,0.908,0,0,0-1.23,0l-0.53.5a0.833,0.833,0,0,0,0,1.19l7.12,6.83a0.894,0.894,0,0,0,.62.24A0.86,0.86,0,0,0,1196.62,2118.76Z" transform="translate(-1188 -2110)"/>
</svg>
