<svg xmlns="http://www.w3.org/2000/svg" width="11" height="18" viewBox="0 0 11 18">
  <defs>
    <style>
      .cls-1 {
        fill: #f9b736;
        fill-rule: evenodd;
      }
    </style>
  </defs>
  <path id="Forma_1" data-name="Forma 1" class="cls-1" d="M897.584,4991.99h-8.167A1.366,1.366,0,0,0,888,4993.3v15.4a1.366,1.366,0,0,0,1.413,1.31h8.167A1.367,1.367,0,0,0,899,5008.7v-15.4A1.367,1.367,0,0,0,897.584,4991.99Zm-6.1.8h4.032a0.274,0.274,0,0,1,.184.31,0.28,0.28,0,0,1-.184.32h-4.032a0.279,0.279,0,0,1-.184-0.32A0.273,0.273,0,0,1,891.485,4992.79Zm2.016,15.92a0.837,0.837,0,1,1,.9-0.84A0.869,0.869,0,0,1,893.5,5008.71Zm4.436-2.87h-8.874v-11.63h8.874v11.63Z" transform="translate(-888 -4992)"/>
</svg>
